# Blender v2.69 (sub 0) OBJ File: ''
# www.blender.org
mtllib cubo.mtl
o Cube
v 1.000000 -1.000000 -1.000000
v 1.000000 -1.000000 1.000000
v -1.000000 -1.000000 1.000000
v -1.000000 -1.000000 -1.000000
v 1.000000 1.000000 -0.999999
v 0.999999 1.000000 1.000001
v -1.000000 1.000000 1.000000
v -1.000000 1.000000 -1.000000
vt 0.993408 0.999900
vt 0.000100 0.999900
vt 0.993408 0.000100
vt 0.000100 0.000100
vn 0.000000 -1.000000 0.000000
vn 0.000000 1.000000 0.000000
vn 1.000000 -0.000000 0.000000
vn 0.000000 -0.000000 1.000000
vn -1.000000 -0.000000 -0.000000
vn 0.000000 0.000000 -1.000000
vn 1.000000 0.000000 0.000001
usemtl Material
s off
f 1/1/1 2/2/1 4/3/1
f 5/1/2 8/2/2 6/3/2
f 1/3/3 5/1/3 2/4/3
f 2/3/4 6/1/4 3/4/4
f 3/2/5 7/4/5 4/1/5
f 5/3/6 1/1/6 8/4/6
f 2/2/1 3/4/1 4/3/1
f 8/2/2 7/4/2 6/3/2
f 5/1/7 6/2/7 2/4/7
f 6/1/4 7/2/4 3/4/4
f 7/4/5 8/3/5 4/1/5
f 1/1/6 4/2/6 8/4/6
